<?xml version="1.0" encoding="utf-8"?>
<!-- Generator: Adobe Illustrator 15.0.0, SVG Export Plug-In . SVG Version: 6.00 Build 0)  -->
<!DOCTYPE svg PUBLIC "-//W3C//DTD SVG 1.1//EN" "http://www.w3.org/Graphics/SVG/1.1/DTD/svg11.dtd">
<svg version="1.1" id="Layer_1" xmlns="http://www.w3.org/2000/svg" xmlns:xlink="http://www.w3.org/1999/xlink" x="0px" y="0px"
	 width="1920px" height="2205px" viewBox="0 0 1920 2205" enable-background="new 0 0 1920 2205" xml:space="preserve">
<path fill="#FFFFFF" d="M1768.105,779.97h-139.234c-97.72-364.048-356.121-624.172-659.546-624.172
	c-303.424,0-561.825,260.125-659.545,624.172H153.143C68.563,779.97,0,848.534,0,933.113v320.208
	c0,84.579,68.563,153.143,153.143,153.143H304.94c93.804,373.745,355.829,642.738,664.385,642.738
	c308.557,0,570.582-268.993,664.386-642.738h134.395c84.579,0,153.143-68.563,153.143-153.143V933.113
	C1921.248,848.534,1852.685,779.97,1768.105,779.97z M1497.516,1557.289h-370.792c-17.267-55.131-68.733-95.137-129.554-95.137
	c-74.967,0-135.741,60.773-135.741,135.74c0,74.968,60.773,135.741,135.741,135.741c58.313,0,107.896-36.845,127.106-88.469h325.43
	c-114.912,185.154-287.442,302.932-480.381,302.932c-345.958,0-626.426-378.585-626.426-845.597
	c0-165.437,34.221-320.099,96.761-449.728c28.47-59.009,478.015,314.603,841.171,359.234
	c207.676,25.523,297.47-108.715,305.606-55.6c7.247,47.296,9.313,96.271,9.313,146.093
	C1595.752,1269.918,1559.695,1425.968,1497.516,1557.289z"/>
</svg>
