<?xml version="1.0" encoding="utf-8"?>
<!-- Generator: Adobe Illustrator 22.1.0, SVG Export Plug-In . SVG Version: 6.00 Build 0)  -->
<svg version="1.1" id="Orange_Experts_1_" xmlns="http://www.w3.org/2000/svg" xmlns:xlink="http://www.w3.org/1999/xlink" x="0px"
	 y="0px" viewBox="0 0 1000 1000" style="enable-background:new 0 0 1000 1000;" xml:space="preserve">
<style type="text/css">
	.st0{display:none;}
	.st1{display:inline;}
	.st2{fill:#FFFFFF;}
</style>
<g id="Shape_1" class="st0">
	<g class="st1">
		<path class="st2" d="M500,440c93.9,0,170-76.1,170-170s-76.1-170-170-170s-170,76.1-170,170S406.1,440,500,440z M643.6,423.2
			C606,458.4,555.5,480,500,480s-106-21.6-143.6-56.8C293.1,456.8,250,523.4,250,600v210l0,0c0.5,49.8,41,90,90.9,90H750V600
			C750,523.4,706.9,456.8,643.6,423.2z M500,810l-50-65.1l30.9-230.3c6.3,0.5,12.7,0.8,19.1,0.8c6.8,0,13.5-0.3,20.1-0.8L550,744.9
			L500,810z"/>
	</g>
</g>
<g>
	<path class="st2" d="M511.6,694.5c4.8-44.6-30.8-81.9-77.6-77.2c2.2-22.1-3.6-41.6-19.4-57.5c-15.8-15.9-35.3-21.9-57-19.8
		c-0.8-8.3-0.6-16.5-2.4-24.3c-5.8-25.5-21.4-42.7-46.3-50.5c-25-7.8-48-2.6-67.2,15.4c-17.1,16.1-33.2,33.1-50,49.9
		c-18.3-19.4-40-36.6-52.2-62.2c-22-46.1-13.9-103.3,21.8-139.8c45.6-46.6,91.5-92.8,138.2-138.3c47.6-46.4,124.8-45.6,172.8,0.6
		c3.2,3.1,6.5,6.3,9.7,9.4c-58.3,58.2-116.4,116.2-175,174.8c16.7,16.1,31.5,32.5,48.4,46.3c29.9,24.3,74.1,22.2,103.1-3.2
		c2.6-2.3,5.1-4.8,7.6-7.2c36.3-36.3,72.6-72.6,108.9-108.9c1.3-1.3,2.3-2.8,3.7-4.4c1.7,1.6,2.8,2.5,3.8,3.5
		c72.7,72.7,145.4,145.4,218.1,218.2c13.1,13.1,17.2,28.4,10.5,45.7c-10.2,26.7-44.1,34.5-65.4,15.5c-1.7-1.6-3.4-3.2-5-4.9
		C690.8,525.8,641,475.9,591,426.2c-2.9-2.9-7-5.2-11-6c-5.7-1.2-10.4,1.9-13,7.2c-2.6,5.2-2,10.4,1.7,14.9c1.1,1.4,2.5,2.7,3.8,4
		c50.3,50.3,100.7,100.6,150.9,151c19,19,16.9,48.4-4.3,63.6c-14.7,10.5-35,10-49.3-1.4c-2.2-1.8-4.2-3.8-6.2-5.8
		c-50.1-50.1-100.2-100.2-150.2-150.3c-4.1-4.1-8.4-7.1-14.5-5.8c-10.1,2.2-14.4,13.7-7.9,21.9c1.2,1.6,2.7,2.9,4.1,4.3
		c50.2,50.2,100.4,100.4,150.6,150.6c16,16,17.8,39,4.6,55.7c-15.3,19.3-43.1,21.2-61,4.1c-5.9-5.6-11.7-11.4-17.3-17.3
		c-15.5-16.1-34.2-23.7-56.6-22.2c-0.8,0.1-1.7,0.1-2.5,0C512.5,694.9,512.2,694.7,511.6,694.5z"/>
	<path class="st2" d="M578.4,258.1c-1.4,2.1-2.3,4-3.7,5.4c-42.8,42.9-85.7,85.8-128.6,128.7c-25,25-57.6,25-82.7,0
		c-5.5-5.5-11.1-10.9-16.9-16.6c1.5-1.6,2.6-2.8,3.8-4c59.5-59.5,119-119,178.4-178.5c25.6-25.6,56.3-38.8,92.4-37.9
		c32,0.8,59.9,12.4,82.6,34.9c46.3,45.8,92.5,91.7,138.1,138.2c46.5,47.4,46.7,121.9,1.4,170.4c-3.9,4.1-7.9,8-12.1,12.2
		C747.3,426.9,663.4,343.1,578.4,258.1z"/>
	<path class="st2" d="M562.1,763.4c-0.1,11-3.9,20.5-11.6,28.4c-13.1,13.3-26.2,26.6-39.6,39.5c-16.4,15.9-41.6,15.6-57.6-0.3
		c-16-15.8-16.4-41.1-0.6-57.6c13-13.6,26.3-27,39.9-39.9c13-12.3,28.3-14.8,44.9-8.1C552.6,731.7,562.2,746.9,562.1,763.4z"/>
	<path class="st2" d="M407.1,605.6c-0.1,13.4-3.9,23.1-11.7,31.1c-13.1,13.3-26.2,26.6-39.6,39.5c-16.5,15.9-41.5,15.5-57.6-0.4
		c-15.9-15.8-16.4-41.1-0.5-57.6c13-13.6,26.3-27,39.9-39.9c13-12.2,28.5-15,44.8-7.9C398.5,577.4,406.3,590.5,407.1,605.6z"/>
	<path class="st2" d="M402.2,765.3c-15.1-0.8-28.1-8.6-35-24.7c-6.8-15.7-4.6-31,7.1-43.7c13.3-14.4,27.3-28.3,41.6-41.7
		c16.2-15.2,41.3-14.3,56.8,1.3c15.5,15.6,16.2,40.7,0.9,56.9c-13.3,14-27.1,27.5-40.9,41C424.9,761.9,415.3,765.4,402.2,765.3z"/>
	<path class="st2" d="M246.3,610.2c-14.1-0.7-27-8.5-34-24.2c-6.9-15.6-5-31.1,6.7-43.7c13.6-14.8,27.9-29.1,42.7-42.7
		c15.9-14.6,40.4-13.4,55.7,1.7c15.4,15.2,16.8,40,2,56c-13.7,14.9-28.4,29-43,43.1C269,607.4,259.6,610.4,246.3,610.2z"/>
</g>
</svg>
