<svg data-name="Layer 1" xmlns="http://www.w3.org/2000/svg" viewBox="0 0 700 690"><path d="M75 690c-41.42 0-75-33.58-75-75V485l35-35-35-35V140h360.95c3.06 24.52 13.15 43.24 23.73 62.88l.32.6.35.58 80.71 132.08a49.807 49.807 0 0 0-6.06 23.88c0 27.62 22.38 50 50 50s50-22.38 50-50c0-8.69-2.22-16.86-6.12-23.98l80.4-132 .34-.56.31-.58.6-1.12c9.7-17.98 18.41-34.16 22.3-54.19 24.96 12.18 42.16 37.8 42.16 67.44v475H75zM35.71 380.38l35.35 35.35 35.36-35.35-35.35-35.36-35.36 35.36zm103.91-104.64-35.35 35.36 35.35 35.36 35.36-35.36-35.36-35.36zm70.71 70.71-35.36 35.36 35.36 35.35 35.36-35.35-35.36-35.36zm70.71 70.71-35.36 35.36 35.36 35.35 35.35-35.35-35.35-35.36zm67.84 67.13-35.36 35.36L348.88 555l35.35-35.35-35.35-35.36zm70.71-70.71-35.36 35.36 35.36 35.35 35.35-35.35-35.35-35.36zM510 360h-.06L406.68 191.01c-12.52-23.23-21.68-40.5-21.68-66.39C385 56.15 440.32 0 510 0s125 56.15 125 124.62c0 25.88-9.55 43.16-22.07 66.39L510 360zm0-280c-24.85 0-45 20.15-45 45s20.15 45 45 45 45-20.15 45-45-20.15-45-45-45z" style="fill:#fff;fill-rule:evenodd;stroke-width:0"/></svg>