<?xml version="1.0" encoding="utf-8"?>
<!-- Generator: Adobe Illustrator 19.1.1, SVG Export Plug-In . SVG Version: 6.00 Build 0)  -->
<svg version="1.1" id="Finance_1_" xmlns="http://www.w3.org/2000/svg" xmlns:xlink="http://www.w3.org/1999/xlink" x="0px" y="0px"
	 viewBox="0 0 1000 1000" style="enable-background:new 0 0 1000 1000;" xml:space="preserve">
<style type="text/css">
	.st0{fill-rule:evenodd;clip-rule:evenodd;fill:#FFFFFF;}
	.st1{fill-rule:evenodd;clip-rule:evenodd;}
</style>
<path class="st0" d="M33.7,380.7l572-257.2c28.7-12.9,62.5-0.1,75.4,28.6l163.6,363.8c12.9,28.7,0.1,62.4-28.6,75.3l-572,257.2
	c-28.7,12.9-62.5,0.1-75.4-28.6L5,456C-7.9,427.3,4.9,393.6,33.7,380.7z"/>
<path class="st1" d="M287.1,320.8h627.3c47.2,0,85.5,38.3,85.5,85.5v399.2c0,47.2-38.3,85.5-85.5,85.5H287.1
	c-47.2,0-85.5-38.3-85.5-85.5V406.4C201.6,359.1,239.9,320.8,287.1,320.8z"/>
<path class="st0" d="M287.1,349.4h627.3c31.5,0,57,25.5,57,57v399.2c0,31.5-25.5,57-57,57H287.1c-31.5,0-57-25.5-57-57V406.4
	C230.1,374.9,255.6,349.4,287.1,349.4z"/>
<path class="st0" d="M315.7,406.4h570.3c15.7,0,28.5,12.8,28.5,28.5v342.2c0,15.7-12.8,28.5-28.5,28.5H315.7
	c-15.7,0-28.5-12.8-28.5-28.5V434.9C287.1,419.2,299.9,406.4,315.7,406.4z"/>
<rect x="287.1" y="491.9" class="st1" width="627.3" height="85.5"/>
<path class="st1" d="M372.7,691.5h57c15.7,0,28.5,12.8,28.5,28.5s-12.8,28.5-28.5,28.5h-57c-15.7,0-28.5-12.8-28.5-28.5
	S356.9,691.5,372.7,691.5z"/>
<path class="st1" d="M515.3,691.5h57c15.7,0,28.5,12.8,28.5,28.5s-12.8,28.5-28.5,28.5h-57c-15.7,0-28.5-12.8-28.5-28.5
	S499.5,691.5,515.3,691.5z"/>
<path class="st1" d="M657.8,691.5h57c15.7,0,28.5,12.8,28.5,28.5s-12.8,28.5-28.5,28.5h-57c-15.7,0-28.5-12.8-28.5-28.5
	S642.1,691.5,657.8,691.5z"/>
</svg>
