<?xml version="1.0" encoding="utf-8"?>
<!-- Generator: Adobe Illustrator 15.0.0, SVG Export Plug-In . SVG Version: 6.00 Build 0)  -->
<!DOCTYPE svg PUBLIC "-//W3C//DTD SVG 1.1//EN" "http://www.w3.org/Graphics/SVG/1.1/DTD/svg11.dtd">
<svg version="1.1" id="Layer_1" xmlns="http://www.w3.org/2000/svg" xmlns:xlink="http://www.w3.org/1999/xlink" x="0px" y="0px"
	 width="500px" height="500px" viewBox="0 0 500 500" enable-background="new 0 0 500 500" xml:space="preserve">
<rect fill="#F26822" width="500" height="500"/>
<g>
	<path fill="#FFFFFF" d="M196.151,451.588c-7.083,4.663-14.754,6.922-23.018,6.922c-12.985,0-20.66-8.643-20.66-20.223
		c0-15.574,14.314-23.828,43.824-27.153v-3.877c0-5.063-3.835-7.993-10.922-7.993c-7.08,0-12.834,2.801-16.965,7.993l-12.393-7.056
		c6.494-9.054,16.377-13.581,29.661-13.581c18.145,0,28.325,7.852,28.325,20.637c0,0-0.027,50.322,0.016,50.453h-16.243
		L196.151,451.588z M170.476,436.957c0,4.663,2.953,9.038,8.267,9.038c5.752,0,11.359-2.396,16.963-7.326v-16.484
		C178.594,424.315,170.476,428.708,170.476,436.957z"/>
	<g>
		<path fill="#FFFFFF" d="M228.485,389.937l15.153-2.091l1.671,8.256c8.555-6.26,15.344-9.591,23.903-9.591
			c14.313,0,21.693,7.589,21.693,22.634v48.459h-18.304v-45.267c0-8.521-2.208-12.38-8.851-12.38c-5.46,0-10.917,2.528-17.116,7.726
			v49.921h-18.151V389.937z"/>
	</g>
	<path fill="#FFFFFF" d="M412.196,458.932c-20.506,0-32.755-13.178-32.755-36.077c0-23.167,12.395-36.344,32.458-36.344
		c20.068,0,32.019,12.782,32.019,35.419c0,1.195-0.148,2.393-0.148,3.59h-46.325c0.145,13.181,5.606,19.833,16.381,19.833
		c6.929,0,11.507-2.796,15.786-8.914l13.421,7.448C437.134,453.739,426.512,458.932,412.196,458.932z M425.921,413.673
		c0-9.322-5.311-14.782-14.021-14.782c-8.258,0-13.424,5.329-14.161,14.782H425.921z"/>
	<path fill="#FFFFFF" d="M61.537,459.692c-18.102,0-34.428-11.544-34.428-36.723c0-25.184,16.326-36.723,34.428-36.723
		c18.104,0,34.43,11.539,34.43,36.723C95.967,448.148,79.641,459.692,61.537,459.692z M61.537,401.724
		c-13.67,0-16.199,12.33-16.199,21.246c0,8.921,2.529,21.244,16.199,21.244c13.674,0,16.207-12.323,16.207-21.244
		C77.744,414.054,75.211,401.724,61.537,401.724z"/>
	<path fill="#FFFFFF" d="M108.525,388.072h17.411v8.188c3.313-4.409,11.511-9.615,19.181-9.615c0.736,0,1.619,0,2.361,0.131v17.176
		c-0.298,0-0.59,0-0.885,0c-7.968,0-16.678,1.227-19.476,7.421v46.286h-18.591V388.072z"/>
	<path fill="#FFFFFF" d="M335.742,442.712c13.899-0.105,15.065-14.237,15.065-23.468c0-10.869-5.319-19.726-15.19-19.726
		c-6.586,0-13.924,4.805-13.924,20.481C321.693,428.601,322.302,442.815,335.742,442.712z M368.396,387.819v65.896
		c0,11.632-0.882,30.767-34.046,30.978c-13.684,0.087-26.36-5.381-28.899-17.326l18.075-2.91c0.758,3.418,2.851,6.832,13.102,6.832
		c9.493,0,14.049-4.551,14.049-15.424v-8.098l-0.251-0.25c-2.909,5.186-7.34,10.115-17.972,10.115
		c-16.204,0-28.988-11.248-28.988-34.771c0-23.267,13.161-36.287,27.971-36.313c13.871-0.021,19.037,6.305,20.21,9.637l-0.21-0.038
		l1.502-8.327H368.396z"/>
	<path fill="#FFFFFF" d="M451.111,364.753h-7.2v19.925h-3.796v-19.925h-7.197v-3.066h18.193V364.753z M481.087,384.678h-3.8v-19.198
		h-0.117l-7.531,19.198h-2.401l-7.53-19.198h-0.114v19.198H455.8v-22.991h5.86l6.862,17.464l6.753-17.464h5.812V384.678z"/>
</g>
</svg>
