<?xml version="1.0" encoding="utf-8"?>
<!-- Generator: Adobe Illustrator 15.0.0, SVG Export Plug-In . SVG Version: 6.00 Build 0)  -->
<!DOCTYPE svg PUBLIC "-//W3C//DTD SVG 1.1//EN" "http://www.w3.org/Graphics/SVG/1.1/DTD/svg11.dtd">
<svg version="1.1" id="Layer_1" xmlns="http://www.w3.org/2000/svg" xmlns:xlink="http://www.w3.org/1999/xlink" x="0px" y="0px"
	 width="1920px" height="2205px" viewBox="0 0 1920 2205" enable-background="new 0 0 1920 2205" xml:space="preserve">
<g>
	<path fill-rule="evenodd" clip-rule="evenodd" fill="#FFFFFF" d="M964.015,2204.07
		c-207.889-374.389-427.057-767.046-633.342-1157.666c-54.22-102.674-89.257-225.025-83.06-365.988
		c6.007-136.624,49.37-246.155,106.423-340.032C457.932,169.429,651.479,16.12,919.888,0.354
		c295.849-17.378,497.993,129.828,620.364,298.501c64.838,89.372,113.969,192.836,129.782,329.649
		c15.837,137.021-8.933,276.441-59.7,386.753c-23.244,50.507-53.609,100.949-80.465,150.549
		C1344.155,1508.784,1148.297,1857.692,964.015,2204.07z M574.666,368.938c-76.598,84.797-143.613,214.885-129.783,384.158
		c12.606,154.297,75.951,262.891,168.718,347.819c89.045,81.52,227.473,142.036,384.157,129.783
		c153.917-12.037,261.271-75.564,347.819-168.718c80.498-86.644,147.462-215.259,134.975-384.158
		c-11.101-150.12-83.484-269.159-168.718-347.819c-84.325-77.821-224.697-145.051-386.754-132.378
		C765.463,210.106,653.612,281.54,574.666,368.938z"/>
	<path fill-rule="evenodd" clip-rule="evenodd" fill="#FFFFFF" d="M1283.281,413.064
		c-137.061,236.714-294.898,475.151-438.667,713.807c-17.2-96.144-27.503-199.186-38.935-301.097
		c-87.717-28.223-181.182-50.697-269.948-77.87C782.268,633.646,1036.331,526.907,1283.281,413.064z"/>
</g>
</svg>
